<svg id="visual" viewBox="0 0 900 600" width="900" height="600" xmlns="http://www.w3.org/2000/svg" xmlns:xlink="http://www.w3.org/1999/xlink" version="1.1"><rect x="0" y="0" width="900" height="600" fill="#0A1913"></rect><defs><linearGradient id="grad1_0" x1="33.3%" y1="0%" x2="100%" y2="100%"><stop offset="20%" stop-color="#0a1913" stop-opacity="1"></stop><stop offset="80%" stop-color="#0a1913" stop-opacity="1"></stop></linearGradient></defs><defs><linearGradient id="grad2_0" x1="0%" y1="0%" x2="66.7%" y2="100%"><stop offset="20%" stop-color="#0a1913" stop-opacity="1"></stop><stop offset="80%" stop-color="#0a1913" stop-opacity="1"></stop></linearGradient></defs><g transform="translate(900, 0)"><path d="M0 297.5C-23.8 272.6 -47.6 247.8 -78.8 242.5C-110 237.2 -148.4 251.4 -174.8 240.6C-201.3 229.9 -215.6 194.3 -225.7 164C-235.8 133.7 -241.7 108.6 -253 82.2C-264.2 55.7 -280.8 27.9 -297.5 0L0 0Z" fill="#94ab53"></path></g><g transform="translate(0, 600)"><path d="M0 -297.5C33.6 -298.1 67.3 -298.8 91.9 -282.9C116.6 -267 132.2 -234.7 155.8 -214.4C179.3 -194.1 210.8 -185.9 228.1 -165.8C245.4 -145.6 248.6 -113.4 257.7 -83.7C266.9 -54.1 282.2 -27.1 297.5 0L0 0Z" fill="#94ab53"></path></g></svg>